<?xml version="1.0" encoding="UTF-8"?>
<svg id="Calque_1" xmlns="http://www.w3.org/2000/svg" version="1.1" viewBox="0 0 800 358.73">
  <!-- Generator: Adobe Illustrator 30.2.1, SVG Export Plug-In . SVG Version: 2.1.1 Build 1)  -->
  <defs>
    <style>
      .st0 {
        fill: #e2c992;
      }

      .st1 {
        fill: #333;
      }
    </style>
  </defs>
  <g>
    <path class="st0" d="M151.91,237.39c-4.39,0-7.59-1.17-9.59-3.51-2-2.34-2.38-5.42-1.14-9.24.92-2.83,2.5-5.17,4.72-7.01,2.23-1.84,4.62-2.76,7.17-2.76,2.41,0,3.87.71,4.4,2.12.53,1.41.82,3.04.86,4.88s.25,3.47.64,4.89c.39,1.42,1.5,2.12,3.34,2.12,2.69,0,5.25-1.56,7.69-4.67,2.43-3.12,4.56-7.51,6.4-13.17l51.43-158.29c.96-2.97,1.15-4.96.55-5.95-.6-.99-2.29-1.77-5.08-2.34l-4.6-.85c-1.71-.42-2.35-1.27-1.94-2.55.5-1.55,1.82-2.33,3.94-2.33h38.46c2.12,0,2.93.78,2.43,2.33-.41,1.28-1.62,2.13-3.59,2.55l-5.17.85c-3.16.57-5.36,1.35-6.6,2.34-1.25.99-2.35,2.98-3.31,5.95l-42.12,129.6c-5.52,17-12.64,30.42-21.37,40.26-8.73,9.84-17.9,14.77-27.53,14.77Z"/>
    <path class="st0" d="M248.57,193.61c-3.54,0-6.69-.78-9.44-2.33-2.75-1.56-4.64-4.04-5.66-7.44-1.02-3.4-.61-7.93,1.23-13.6l24.02-73.94c.83-2.55,1.02-4.32.56-5.31s-1.66-1.56-3.59-1.7l-3.47-.43c-2.32-.28-3.22-1.2-2.71-2.76.6-1.84,2.24-2.76,4.94-2.76h19.76c2.13,0,2.84,1.06,2.15,3.19l-25.75,79.25c-2.12,6.52-2.39,11.15-.8,13.92,1.58,2.76,4.56,4.14,8.95,4.14s8.69-1.24,12.9-3.72c4.2-2.47,8.01-5.81,11.43-9.99,3.41-4.17,5.92-8.74,7.53-13.7l19.53-60.13c.83-2.55,1.01-4.32.55-5.31-.45-.99-1.65-1.56-3.59-1.7l-3.47-.43c-2.32-.28-3.23-1.2-2.72-2.76.6-1.84,2.25-2.76,4.94-2.76h19.76c2.12,0,2.83,1.06,2.15,3.19l-26.79,82.43c-.83,2.55-1,4.29-.52,5.21.48.92,1.66,1.53,3.55,1.81l4.25.64c1.8.14,2.49.85,2.08,2.12-.41,1.28-1.83,2.13-4.23,2.55-4.58.57-8.45,1.7-11.63,3.4-3.17,1.7-6.15,3.76-8.9,6.16-1.69,1.27-2.96,1.91-3.81,1.91-1.27,0-1.63-.85-1.08-2.55l3.18-9.77c.37-1.13.19-1.81-.52-2.02-.71-.21-1.63.11-2.76.96-6.94,5.24-12.78,8.93-17.51,11.05-4.73,2.12-9.57,3.18-14.52,3.18Z"/>
    <path class="st0" d="M300.9,235.26c-2.13,0-2.94-.78-2.43-2.34.5-1.56,1.71-2.41,3.59-2.55l3.11-.42c3.11-.42,5.34-1.27,6.67-2.55,1.33-1.27,2.48-3.4,3.45-6.37l37.35-114.95c.83-2.55,1-4.28.52-5.21-.48-.92-1.66-1.52-3.56-1.81l-4.25-.64c-1.8-.14-2.46-.92-2.01-2.33.37-1.13,1.76-1.91,4.16-2.34,4.62-.71,8.36-1.84,11.2-3.4,2.84-1.56,5.91-3.47,9.2-5.74,1.69-1.28,2.96-1.91,3.81-1.91,1.27,0,1.64.85,1.08,2.55l-2.14,6.59c-.32.99-.11,1.67.62,2.02.74.35,1.85-.03,3.36-1.17l3.1-2.34c3.75-2.83,7.34-4.92,10.75-6.27,3.41-1.34,7.03-2.02,10.85-2.02,6.52,0,11.58,2.16,15.21,6.48,3.63,4.32,5.65,10.3,6.07,17.95.41,7.65-1.05,16.65-4.41,26.98-3.81,11.76-9.05,22.17-15.67,31.23-6.63,9.07-13.99,16.15-22.09,21.25-8.1,5.1-16.33,7.65-24.69,7.65-4.25,0-7.75-.78-10.51-2.33-2.18-1.13-3.71-.35-4.58,2.33l-8.91,27.41c-.96,2.97-1.16,4.99-.58,6.05.57,1.06,2.27,1.81,5.11,2.23l7.52,1.06c1.46.28,1.99,1.06,1.57,2.34-.55,1.7-1.89,2.55-4.02,2.55h-38.45ZM356.1,188.31c7.93,0,15.86-4.68,23.78-14.02,7.92-9.35,14.46-21.96,19.62-37.82,4.74-14.59,6.22-25.71,4.46-33.36-1.76-7.65-6.55-11.48-14.34-11.48-4.81,0-9.64,1.99-14.47,5.95-4.83,3.97-8.39,9.49-10.69,16.57l-17.4,53.54c-2.07,6.38-2.25,11.41-.54,15.08,1.7,3.69,4.9,5.53,9.57,5.53Z"/>
    <path class="st0" d="M410.02,191.7c-2.13,0-2.94-.78-2.43-2.34.41-1.28,1.61-2.12,3.59-2.55l2.68-.42c3.73-.56,6.28-1.45,7.67-2.66,1.38-1.2,2.56-3.29,3.53-6.27l23.19-71.39c.83-2.55.99-4.28.52-5.21-.48-.92-1.66-1.52-3.55-1.81l-4.25-.64c-1.8-.14-2.46-.92-2.01-2.33.37-1.13,1.76-1.91,4.16-2.34,4.62-.71,8.53-1.84,11.73-3.4,3.19-1.56,6.44-3.47,9.72-5.74,1.69-1.28,2.96-1.91,3.81-1.91,1.27,0,1.64.85,1.08,2.55l-29.96,92.21c-.97,2.97-1.23,5.1-.8,6.37.44,1.27,1.82,2.06,4.13,2.34l5.11.64c1.46.29,1.99,1.06,1.57,2.34-.55,1.7-1.89,2.55-4.02,2.55h-35.48ZM469.63,63.16c-2.97,0-5.14-1.06-6.5-3.19-1.37-2.12-1.52-4.81-.46-8.08,1.06-3.25,2.95-5.91,5.67-7.97,2.72-2.05,5.57-3.08,8.55-3.08s5.11,1.03,6.43,3.08c1.32,2.06,1.45,4.71.39,7.97-1.06,3.26-2.93,5.95-5.6,8.08-2.67,2.13-5.5,3.19-8.48,3.19Z"/>
    <path class="st0" d="M481.64,193.61c-4.96,0-8.47-1.74-10.53-5.2-2.06-3.47-1.8-9.17.78-17.1l25.82-79.46c.55-1.7-.02-2.55-1.72-2.55h-6.16c-2.27,0-3.12-.85-2.57-2.55.37-1.13,1.33-2.12,2.88-2.97,5.73-3.26,10.62-6.76,14.68-10.52,4.05-3.75,8.2-8.89,12.44-15.4,1.96-2.98,3.64-4.46,5.06-4.46,1.55,0,1.97,1.14,1.24,3.4l-7.67,23.58c-.64,1.99.03,2.97,2.01,2.97h13.81c2.27,0,3.08.99,2.43,2.98s-2.1,2.97-4.37,2.97h-13.81c-1.99,0-3.29.99-3.94,2.97l-25.75,79.25c-1.01,3.12-1.32,5.56-.9,7.33.42,1.77,1.97,2.66,4.67,2.66,2.97,0,5.9-1.49,8.78-4.46s5.68-7.79,8.41-14.45c.94-1.98,2.17-2.98,3.73-2.98,1.7,0,2.21,1.06,1.52,3.19-3.97,10.91-8.76,18.77-14.36,23.58-5.6,4.82-11.09,7.22-16.48,7.22Z"/>
    <path class="st0" d="M546.22,193.61c-6.8,0-12.16-2.26-16.06-6.8-3.91-4.53-6.11-10.94-6.6-19.23-.5-8.29,1.03-17.88,4.57-28.79,3.64-11.19,8.47-21.03,14.49-29.53,6.02-8.5,12.64-15.15,19.87-19.97,7.23-4.81,14.32-7.23,21.27-7.23,8.36,0,13.99,3.44,16.94,10.3,2.93,6.87,1.89,18.03-3.12,33.46-1.52,4.67-4.05,7.01-7.59,7.01h-40.36c-2.84,0-4.78,1.63-5.84,4.88-4.88,15.01-6.34,26.28-4.39,33.78,1.95,7.51,6.32,11.26,13.13,11.26,5.38,0,10.39-1.91,15.03-5.74,4.64-3.82,9.5-10.27,14.58-19.34.92-1.55,2.1-2.34,3.52-2.34,1.7,0,1.88,1.42.53,4.25-6.36,12.61-12.84,21.43-19.42,26.46-6.6,5.03-13.43,7.54-20.51,7.54ZM550.69,127.54h21.46c6.8,0,11.35-3.54,13.65-10.62,2.99-9.21,4.2-16.43,3.65-21.67-.57-5.24-3.11-7.86-7.65-7.86-5.52,0-11.2,3.19-17.02,9.56-5.83,6.38-11.22,15.44-16.17,27.2-1.02,2.27-.32,3.4,2.08,3.4Z"/>
    <path class="st0" d="M644.99,96.94c9.02-9.91,17.65-14.87,25.86-14.87,4.67,0,7.69,1.38,9.06,4.14,1.37,2.76,1.5,5.84.4,9.24-.88,2.69-2.27,4.89-4.16,6.59-1.9,1.7-4.27,2.55-7.09,2.55-2.27,0-3.76-.53-4.48-1.59-.72-1.06-1.17-2.3-1.34-3.72s-.52-2.66-1.03-3.72c-.5-1.06-1.75-1.6-3.73-1.6-2.55,0-5.46,1.53-8.71,4.57-3.26,3.04-6.46,7.12-9.6,12.21-3.15,5.1-5.78,10.91-7.9,17.42l-16.01,49.29c-.97,2.97-1.2,5.1-.69,6.37.51,1.27,2.21,2.06,5.09,2.34l5.53.64c1.46.29,1.99,1.06,1.57,2.34-.55,1.7-1.89,2.55-4.01,2.55h-35.91c-2.13,0-2.94-.78-2.43-2.34.41-1.28,1.61-2.12,3.59-2.55l2.68-.42c3.17-.56,5.39-1.45,6.71-2.66,1.31-1.2,2.45-3.29,3.42-6.27l23.19-71.39c.83-2.55.99-4.28.52-5.21-.48-.92-1.66-1.52-3.55-1.81l-4.25-.64c-1.8-.14-2.46-.92-2.01-2.33.37-1.13,1.76-1.91,4.16-2.34,4.62-.71,8.36-1.84,11.2-3.4,2.84-1.56,5.9-3.47,9.2-5.74,1.69-1.28,2.96-1.91,3.8-1.91,1.27,0,1.64.85,1.08,2.55l-3.73,11.47c-.32.99-.1,1.59.69,1.81.78.21,1.73-.32,2.85-1.6Z"/>
  </g>
  <path class="st0" d="M400,341.08c-206.43,0-374.38-72.55-374.38-161.72S193.57,17.65,400,17.65s374.38,72.55,374.38,161.72-167.95,161.72-374.38,161.72ZM400,20.91C195.37,20.91,28.88,91.99,28.88,179.36s166.48,158.46,371.12,158.46,371.12-71.08,371.12-158.46S604.64,20.91,400,20.91Z"/>
  <g>
    <path class="st1" d="M380.34,311.77c-1.25,0-1.88-.46-1.88-1.38s.54-1.42,1.63-1.5l5.64-.88c1.67-.25,2.8-.69,3.38-1.32.59-.63.88-1.82.88-3.57v-75.17c0-1.17-.25-2-.75-2.5-.5-.5-1.55-.75-3.13-.75-3.09,0-6.14,1.34-9.15,4.01-3.01,2.67-4.97,6.97-5.89,12.9l-.62,4.13c-.17,1.09-.75,1.63-1.75,1.63-1.25,0-1.8-.71-1.63-2.13l1.13-22.68c.17-1.92.92-2.88,2.25-2.88.59,0,1.13.15,1.63.44.5.3,1.36.61,2.57.94s3.15.5,5.83.5h27.94c2.67,0,4.61-.17,5.82-.5s2.09-.65,2.64-.94c.54-.29,1.06-.44,1.56-.44,1.34,0,2.09.96,2.26,2.88l1.13,22.68c.17,1.42-.38,2.13-1.63,2.13-1.01,0-1.59-.54-1.76-1.63l-.62-4.13c-.83-5.93-2.76-10.23-5.76-12.9-3.01-2.67-6.09-4.01-9.27-4.01-1.59,0-2.63.25-3.13.75-.5.5-.75,1.33-.75,2.5v75.17c0,1.75.31,2.95.94,3.57.62.62,1.73,1.06,3.32,1.32l5.64.88c1.08.09,1.62.59,1.62,1.5s-.62,1.38-1.88,1.38h-28.19Z"/>
    <path class="st1" d="M427.21,255.89c3.42-5.84,7.56-8.77,12.4-8.77,2.76,0,4.8.82,6.14,2.44,1.34,1.63,2.01,3.45,2.01,5.45,0,1.59-.39,2.88-1.19,3.88-.8,1-2.03,1.5-3.69,1.5-1.34,0-2.32-.32-2.94-.94-.63-.63-1.13-1.36-1.51-2.19-.38-.83-.81-1.57-1.31-2.19-.5-.63-1.34-.94-2.51-.94-1.5,0-2.92.9-4.25,2.69-1.34,1.8-2.45,4.2-3.32,7.21-.87,3.01-1.31,6.43-1.31,10.27v29.07c0,1.75.27,3.01.82,3.76.54.75,1.69,1.21,3.45,1.38l3.38.38c.92.17,1.38.63,1.38,1.38,0,1-.62,1.5-1.88,1.5h-21.18c-1.25,0-1.88-.46-1.88-1.38,0-.75.54-1.25,1.63-1.5l1.5-.25c1.76-.33,2.9-.85,3.45-1.56s.82-1.94.82-3.7v-42.1c0-1.5-.23-2.53-.69-3.07-.46-.54-1.27-.89-2.45-1.06l-2.63-.38c-1.09-.08-1.63-.54-1.63-1.38,0-.67.67-1.13,2.01-1.38,2.59-.42,4.57-1.08,5.95-2,1.38-.92,2.81-2.05,4.32-3.38.75-.75,1.38-1.13,1.88-1.13.75,0,1.13.5,1.13,1.5v6.77c0,.59.25.94.75,1.06.5.13.96-.19,1.38-.94Z"/>
    <path class="st1" d="M451.13,312.9c-3.5,0-6.39-1.11-8.64-3.32-2.25-2.21-3.38-5.16-3.38-8.83s1.13-7,3.38-10.21c2.25-3.21,5.34-6.12,9.27-8.71,3.92-2.59,8.39-4.68,13.41-6.27,1.08-.33,1.62-1.04,1.62-2.13v-11.4c0-4.01-.62-6.87-1.88-8.58-1.25-1.71-2.96-2.57-5.13-2.57s-3.99.94-5.7,2.82c-1.71,1.88-2.95,5.03-3.7,9.46-.41,2.67-1.31,4.62-2.69,5.83-1.38,1.21-2.78,1.82-4.2,1.82-2.34,0-3.5-1.17-3.5-3.51s.69-4.82,2.06-7.21c1.38-2.38,3.2-4.55,5.45-6.52,2.25-1.96,4.72-3.53,7.39-4.7,2.67-1.17,5.34-1.75,8.02-1.75,8.27,0,12.4,4.81,12.4,14.41v38.34c0,3.51.88,5.26,2.63,5.26,1.09,0,2.09-.73,3.01-2.19.92-1.46,1.38-3.95,1.38-7.45,0-1.33.54-2,1.63-2,1,0,1.5.71,1.5,2.13,0,6.1-1.07,10.5-3.2,13.22-2.13,2.72-4.53,4.07-7.2,4.07-2.01,0-3.59-.82-4.76-2.44-1.17-1.63-1.96-3.57-2.38-5.83-.09-.83-.44-1.27-1.07-1.32-.62-.04-1.23.36-1.82,1.19-2.01,2.76-4.05,4.85-6.14,6.26-2.09,1.42-4.68,2.13-7.77,2.13ZM454.52,307.14c2.17,0,4.17-.77,6.01-2.32,1.83-1.54,3.34-3.61,4.51-6.2s1.75-5.51,1.75-8.77v-9.15c0-1.59-.87-2.05-2.63-1.38-5.09,1.84-9.04,4.37-11.84,7.58-2.8,3.22-4.2,7.08-4.2,11.59,0,5.76,2.13,8.65,6.39,8.65Z"/>
    <path class="st1" d="M499.24,312.9c-3.67,0-6.99-1.23-9.96-3.7-2.96-2.46-5.32-5.99-7.08-10.58-1.76-4.59-2.63-10.07-2.63-16.41,0-7.1,1.06-13.28,3.19-18.54,2.13-5.26,5.03-9.34,8.71-12.22,3.67-2.88,7.76-4.32,12.27-4.32,3.85,0,6.85.75,9.02,2.25.83.59,1.25,1.51,1.25,2.76l.25,15.28c0,1.25-.5,1.88-1.5,1.88-.92,0-1.5-.54-1.76-1.63-1.17-4.6-2.29-8.15-3.38-10.65-1.08-2.5-2.21-4.24-3.38-5.2-1.17-.96-2.46-1.44-3.88-1.44-1.67,0-3.4.96-5.2,2.88-1.8,1.92-3.3,5.03-4.51,9.33-1.22,4.3-1.82,9.96-1.82,16.98,0,8.94,1.15,15.66,3.45,20.17,2.3,4.51,5.29,6.77,8.96,6.77,2.92,0,5.37-1.21,7.33-3.63s3.65-6.81,5.08-13.16c.25-.92.75-1.38,1.5-1.38,1,0,1.38.83,1.13,2.5-.92,5.85-2.2,10.38-3.82,13.59-1.63,3.22-3.55,5.43-5.76,6.64-2.22,1.21-4.7,1.82-7.46,1.82Z"/>
    <path class="st1" d="M513.14,311.77c-1,0-1.5-.46-1.5-1.38,0-.83.46-1.33,1.38-1.5l1.75-.25c1.76-.25,2.9-.75,3.45-1.5s.82-2,.82-3.76v-71.79c0-1.5-.23-2.53-.69-3.07-.46-.54-1.27-.9-2.45-1.07l-2.63-.38c-.92-.17-1.38-.67-1.38-1.5s.46-1.33,1.38-1.5c2.34-.5,4.3-1.09,5.89-1.75,1.59-.67,2.92-1.33,4.01-2.01,1.34-.83,2.34-1.25,3.01-1.25.92,0,1.38.67,1.38,2.01v52.49c0,.83.35,1.36,1.06,1.57.71.21,1.39-.06,2.07-.82l14.65-15.78c1.76-1.92,2.48-3.53,2.19-4.82s-1.27-2.11-2.94-2.44l-2.88-.5c-1.09-.25-1.63-.79-1.63-1.63s.59-1.25,1.75-1.25h21.55c1.17,0,1.75.46,1.75,1.38s-.54,1.42-1.62,1.5l-1.13.13c-1.92.17-3.85.9-5.76,2.19-1.92,1.3-4.22,3.32-6.89,6.08l-7.77,8.27c-1.75,1.92-2.17,3.8-1.25,5.64l15.79,30.32c.92,1.67,1.92,2.88,3.01,3.63s2.42,1.3,4.01,1.63l1.25.25c1.01.25,1.5.75,1.5,1.5,0,.92-.58,1.38-1.75,1.38h-21.8c-1.17,0-1.75-.46-1.75-1.38,0-.83.54-1.33,1.62-1.5l2.13-.25c3.17-.42,3.84-2.46,2.01-6.14l-11.9-23.18c-.42-.83-1.03-1.3-1.82-1.38-.79-.08-1.52.21-2.19.88l-1.38,1.38c-.75.75-1.25,1.5-1.5,2.25-.25.75-.38,1.59-.38,2.51v18.42c0,1.75.27,3.01.82,3.76.54.75,1.69,1.21,3.45,1.38l3.38.38c.92.17,1.38.67,1.38,1.5,0,.92-.5,1.38-1.5,1.38h-21.93Z"/>
    <path class="st1" d="M576.91,312.9c-4.01,0-7.6-1.33-10.77-4.01-3.18-2.67-5.71-6.45-7.59-11.34-1.88-4.88-2.81-10.54-2.81-16.98s.96-12.4,2.88-17.42c1.92-5.01,4.55-8.94,7.9-11.78,3.34-2.84,7.06-4.26,11.15-4.26,4.93,0,8.92,2.03,11.97,6.08,3.05,4.05,4.57,10.63,4.57,19.73,0,2.76-1.04,4.14-3.13,4.14h-23.8c-1.67,0-2.51.96-2.51,2.88,0,8.86,1.29,15.5,3.88,19.92,2.59,4.43,5.89,6.64,9.9,6.64,3.17,0,5.76-1.13,7.77-3.38s3.63-6.05,4.88-11.4c.25-.92.79-1.38,1.63-1.38,1,0,1.38.84,1.13,2.51-1.34,7.44-3.47,12.64-6.39,15.6-2.92,2.97-6.47,4.45-10.65,4.45ZM566.9,273.94h12.65c4.01,0,6.02-2.09,6.02-6.26,0-5.43-.67-9.69-2.01-12.78-1.34-3.09-3.34-4.64-6.01-4.64-3.26,0-6,1.88-8.21,5.64-2.21,3.76-3.66,9.11-4.32,16.04-.17,1.34.46,2.01,1.89,2.01Z"/>
    <path class="st1" d="M607.24,255.89c3.43-5.84,7.56-8.77,12.41-8.77,2.76,0,4.8.82,6.14,2.44,1.33,1.63,2.01,3.45,2.01,5.45,0,1.59-.4,2.88-1.19,3.88-.8,1-2.03,1.5-3.7,1.5-1.34,0-2.32-.32-2.94-.94-.62-.63-1.13-1.36-1.5-2.19-.38-.83-.82-1.57-1.32-2.19-.5-.63-1.34-.94-2.5-.94-1.5,0-2.92.9-4.26,2.69-1.34,1.8-2.45,4.2-3.32,7.21-.88,3.01-1.32,6.43-1.32,10.27v29.07c0,1.75.27,3.01.82,3.76s1.69,1.21,3.45,1.38l3.38.38c.92.17,1.38.63,1.38,1.38,0,1-.63,1.5-1.88,1.5h-21.18c-1.25,0-1.88-.46-1.88-1.38,0-.75.54-1.25,1.63-1.5l1.5-.25c1.75-.33,2.9-.85,3.45-1.56.54-.71.82-1.94.82-3.7v-42.1c0-1.5-.24-2.53-.69-3.07-.46-.54-1.27-.89-2.44-1.06l-2.63-.38c-1.09-.08-1.63-.54-1.63-1.38,0-.67.67-1.13,2.01-1.38,2.59-.42,4.57-1.08,5.95-2s2.82-2.05,4.32-3.38c.75-.75,1.38-1.13,1.88-1.13.75,0,1.13.5,1.13,1.5v6.77c0,.59.25.94.75,1.06.5.13.96-.19,1.38-.94Z"/>
  </g>
  <g id="IRDWk0.tif">
    <g>
      <path class="st1" d="M644.41,240.45c-2.84,1.12-6.06,1.11-8.86.02-3.51-1.37-6.12-4.2-7.22-7.77-1.68-5.45.71-11.42,5.7-14.18,3.7-2.05,8.15-2.05,11.85-.02,5,2.75,7.41,8.72,5.73,14.18-1.09,3.55-3.68,6.39-7.19,7.77ZM645.58,237.88c4.02-2.6,5.75-7.55,4.24-12.03-1.64-4.86-6.59-7.85-11.66-6.95-6.22,1.1-10.09,7.45-8.1,13.48.75,2.3,2.28,4.23,4.28,5.52,3.43,2.21,7.79,2.22,11.24-.02Z"/>
      <path class="st1" d="M645.94,236.34l-2.89.02-3.32-5.7h-1.55s0,5.7,0,5.7l-2.54-.02v-14.43s3.88,0,3.88,0c.84,0,1.64.12,2.44.31.73.23,1.39.58,1.87,1.17.56.65.74,1.44.84,2.27.22,1.88-.75,3.6-2.57,4.3l3.85,6.39ZM641.78,224.93c-.69-.97-2.46-.82-3.59-.83v4.43s1.32,0,1.32,0c.46,0,.95-.08,1.38-.24,1.37-.5,1.47-2.3.9-3.37Z"/>
    </g>
  </g>
</svg>