<?xml version="1.0" encoding="UTF-8"?>
<svg id="Calque_1" xmlns="http://www.w3.org/2000/svg" xmlns:xlink="http://www.w3.org/1999/xlink" version="1.1" viewBox="0 0 600 600">
  <!-- Generator: Adobe Illustrator 30.2.1, SVG Export Plug-In . SVG Version: 2.1.1 Build 1)  -->
  <defs>
    <style>
      .st0 {
        fill: #fff;
      }

      .st1 {
        fill: url(#Dégradé_sans_nom_33);
      }

      .st2 {
        fill: #333;
      }

      .st3 {
        fill: none;
        stroke: #fff;
        stroke-miterlimit: 10;
        stroke-width: 2px;
      }
    </style>
    <radialGradient id="Dégradé_sans_nom_33" data-name="Dégradé sans nom 33" cx="368.4" cy="149.29" fx="601.28" fy="298.36" r="276.5" gradientUnits="userSpaceOnUse">
      <stop offset="0" stop-color="#e2c992"/>
      <stop offset="1" stop-color="#c9a96e"/>
    </radialGradient>
  </defs>
  <rect class="st2" x="-.09" y="0" width="600.1" height="599.95" rx="81.18" ry="81.18"/>
  <g id="IRDWk0.tif">
    <g>
      <path class="st0" d="M486.4,149.11c-6.43,2.53-13.72,2.51-20.08.04-7.95-3.1-13.87-9.52-16.36-17.6-3.81-12.34,1.61-25.86,12.9-32.11,8.37-4.63,18.45-4.65,26.83-.04,11.32,6.23,16.77,19.76,12.98,32.11-2.47,8.04-8.32,14.47-16.27,17.6ZM489.07,143.29c9.1-5.9,13.03-17.09,9.6-27.25-3.72-11.02-14.92-17.78-26.41-15.75-14.08,2.48-22.84,16.88-18.35,30.54,1.71,5.2,5.15,9.58,9.7,12.5,7.77,5,17.65,5.03,25.46-.04Z"/>
      <path class="st0" d="M489.89,139.81l-6.55.04-7.53-12.91h-3.5s0,12.9,0,12.9l-5.75-.05v-32.69s8.78,0,8.78,0c1.91,0,3.7.27,5.52.71,1.65.52,3.14,1.32,4.24,2.65,1.27,1.47,1.68,3.26,1.9,5.14.5,4.25-1.71,8.16-5.83,9.74l8.72,14.46ZM480.45,113.97c-1.56-2.19-5.56-1.87-8.14-1.87v10.03s2.99,0,2.99,0c1.05,0,2.14-.18,3.12-.53,3.09-1.13,3.33-5.22,2.04-7.63Z"/>
    </g>
  </g>
  <circle class="st3" cx="307.32" cy="292.7" r="164.33"/>
  <ellipse class="st3" cx="307.32" cy="292.7" rx="113" ry="164.33"/>
  <ellipse class="st3" cx="307.32" cy="292.7" rx="41.01" ry="164.33"/>
  <line class="st3" x1="143.4" y1="291.15" x2="472.89" y2="291.15"/>
  <ellipse class="st3" cx="307.32" cy="292.7" rx="163.92" ry="92.25"/>
  <path class="st1" d="M166.05,527.77c-10.63,0-18.39-2.83-23.24-8.5-4.84-5.66-5.76-13.13-2.76-22.4,2.23-6.87,6.05-12.54,11.44-16.99,5.4-4.46,11.18-6.69,17.37-6.69,5.83,0,9.38,1.71,10.67,5.15,1.3,3.43,1.99,7.38,2.08,11.84.09,4.46.62,8.41,1.55,11.85.96,3.43,3.65,5.15,8.11,5.15,6.51,0,12.73-3.78,18.63-11.32,5.87-7.56,11.05-18.2,15.51-31.93l124.64-383.61c2.34-7.21,2.79-12.02,1.34-14.42-1.46-2.39-5.56-4.29-12.32-5.66l-11.17-2.06c-4.14-1.03-5.7-3.09-4.69-6.18,1.23-3.77,4.42-5.66,9.56-5.66h93.21c5.14,0,7.1,1.89,5.87,5.66-1,3.09-3.91,5.16-8.7,6.18l-12.51,2.06c-7.66,1.37-12.99,3.27-15.99,5.66-3.03,2.41-5.7,7.22-8.03,14.42l-102.06,314.09c-13.38,41.19-30.64,73.71-51.78,97.58-21.15,23.85-43.39,35.79-66.73,35.79Z"/>
</svg>