<?xml version="1.0" encoding="UTF-8"?>
<svg id="Calque_1" xmlns="http://www.w3.org/2000/svg" version="1.1" viewBox="0 0 600 600">
  <!-- Generator: Adobe Illustrator 30.2.1, SVG Export Plug-In . SVG Version: 2.1.1 Build 1)  -->
  <defs>
    <style>
      .st0 {
        fill: #fff;
      }

      .st1 {
        fill: #e2c992;
      }

      .st2 {
        fill: #333;
      }
    </style>
  </defs>
  <rect class="st2" x="-11.98" y="-11.46" width="623.97" height="623.97"/>
  <path class="st1" d="M169.95,532.03c-10.23,0-17.68-2.72-22.35-8.18-4.65-5.45-5.54-12.62-2.65-21.53,2.14-6.6,5.82-12.06,11-16.34,5.19-4.29,10.75-6.43,16.7-6.43,5.61,0,9.02,1.65,10.26,4.95,1.25,3.29,1.91,7.09,2,11.38.09,4.29.59,8.09,1.49,11.39.92,3.3,3.51,4.95,7.8,4.95,6.26,0,12.24-3.64,17.91-10.89,5.65-7.26,10.63-17.5,14.91-30.7l119.85-368.85c2.25-6.93,2.68-11.55,1.28-13.87-1.4-2.3-5.34-4.13-11.84-5.45l-10.74-1.98c-3.98-.99-5.48-2.97-4.51-5.94,1.18-3.62,4.25-5.44,9.19-5.44h89.62c4.94,0,6.83,1.82,5.65,5.44-.96,2.98-3.76,4.96-8.37,5.94l-12.03,1.98c-7.36,1.32-12.49,3.15-15.37,5.45-2.91,2.32-5.48,6.94-7.72,13.87l-98.13,302.01c-12.87,39.61-29.47,70.88-49.79,93.82-20.33,22.94-41.72,34.42-64.16,34.42Z"/>
  <path class="st1" d="M294.88,431.02c-191.76,0-347.78-51.83-347.78-115.55s156.01-115.55,347.78-115.55,347.78,51.84,347.78,115.55-156.01,115.55-347.78,115.55ZM294.88,202.25c-190.1,0-344.75,50.79-344.75,113.22s154.65,113.22,344.75,113.22,344.75-50.79,344.75-113.22-154.65-113.22-344.75-113.22Z"/>
  <g id="IRDWk0.tif">
    <g>
      <path class="st0" d="M485.03,161.9c-6.43,2.53-13.72,2.51-20.08.04-7.95-3.1-13.87-9.52-16.36-17.6-3.81-12.34,1.61-25.86,12.9-32.11,8.37-4.63,18.45-4.65,26.83-.04,11.32,6.23,16.77,19.76,12.98,32.11-2.47,8.04-8.32,14.47-16.27,17.6ZM487.7,156.08c9.1-5.9,13.03-17.09,9.6-27.25-3.72-11.02-14.92-17.78-26.41-15.75-14.08,2.48-22.84,16.88-18.35,30.54,1.71,5.2,5.15,9.58,9.7,12.5,7.77,5,17.65,5.03,25.46-.04Z"/>
      <path class="st0" d="M488.51,152.6l-6.55.04-7.53-12.91h-3.5s0,12.9,0,12.9l-5.75-.05v-32.69s8.78,0,8.78,0c1.91,0,3.7.27,5.52.71,1.65.52,3.14,1.32,4.24,2.65,1.27,1.47,1.68,3.26,1.9,5.14.5,4.25-1.71,8.16-5.83,9.74l8.72,14.46ZM479.08,126.76c-1.56-2.19-5.56-1.87-8.14-1.87v10.03s2.99,0,2.99,0c1.05,0,2.14-.18,3.12-.53,3.09-1.13,3.33-5.22,2.04-7.63Z"/>
    </g>
  </g>
</svg>